REM DIRINDEX 1\8,1\2\11,1\3\12,1\3\14,1\5\15,1\5\16,1\6\17,1\6\18,1\4\19,1\4\20,1\4\21,1\4\22,1\7\23,1\7\24,1\7\25,1\2\9\26,1\2\9\27,1\2\10\28,1\2\10\29,1\2\10\30,1\2\10\31,1\2\10\32,1\3\13\33,1\3\13\34,1\3\13\35
REM DIRNAME folder01,folder02,folder03,folder04,folder05,folder06,folder07,folder08,folder09,folder10,folder11,folder12,folder13,folder14,folder15,folder16,folder17,folder18,folder19,folder20,folder21,folder22,folder23,folder24,folder25,folder26,folder27,folder28,folder29,folder30,folder31,folder32,folder33,folder34,folder35
TITLE ""
FILE "128 128_—á•¶UNIT1_SET6.mp3" MP3
  TRACK 01 AUDIO
    TITLE "22:cjc123_2866"
    INDEX 01 00:00:00
  TRACK 02 AUDIO
    TITLE "0:"
    INDEX 01 00:02:71
  TRACK 03 AUDIO
    TITLE "19:cjc123_2867"
    INDEX 01 00:03:43
  TRACK 04 AUDIO
    TITLE "0:"
    INDEX 01 00:07:27
  TRACK 05 AUDIO
    TITLE "20:cjc123_2868"
    INDEX 01 00:07:68
  TRACK 06 AUDIO
    TITLE "0:"
    INDEX 01 00:11:15
  TRACK 07 AUDIO
    TITLE "21:cjc123_2869"
    INDEX 01 00:11:40
  TRACK 08 AUDIO
    TITLE "0:"
    INDEX 01 00:15:27
  TRACK 09 AUDIO
    TITLE "19:cjc123_2870"
    INDEX 01 00:16:08
  TRACK 10 AUDIO
    TITLE "0:"
    INDEX 01 00:19:22
  TRACK 11 AUDIO
    TITLE "20:cjc123_2871"
    INDEX 01 00:19:69
  TRACK 12 AUDIO
    TITLE "0:"
    INDEX 01 00:23:73
  TRACK 13 AUDIO
    TITLE "21:cjc123_2872"
    INDEX 01 00:24:27
  TRACK 14 AUDIO
    TITLE "0:"
    INDEX 01 00:27:41
  TRACK 15 AUDIO
    TITLE "19:cjc123_2873"
    INDEX 01 00:28:27
  TRACK 16 AUDIO
    TITLE "0:"
    INDEX 01 00:31:00
  TRACK 17 AUDIO
    TITLE "20:cjc123_2874"
    INDEX 01 00:31:39
  TRACK 18 AUDIO
    TITLE "0:"
    INDEX 01 00:35:06
  TRACK 19 AUDIO
    TITLE "21:cjc123_2875"
    INDEX 01 00:35:35
  TRACK 20 AUDIO
    TITLE "0:"
    INDEX 01 00:38:06
  TRACK 21 AUDIO
    TITLE "19:cjc123_2876"
    INDEX 01 00:38:61
  TRACK 22 AUDIO
    TITLE "0:"
    INDEX 01 00:42:23
  TRACK 23 AUDIO
    TITLE "20:cjc123_2877"
    INDEX 01 00:42:49
  TRACK 24 AUDIO
    TITLE "0:"
    INDEX 01 00:45:35
  TRACK 25 AUDIO
    TITLE "21:cjc123_2878"
    INDEX 01 00:45:61
  TRACK 26 AUDIO
    TITLE "0:"
    INDEX 01 00:49:21
  TRACK 27 AUDIO
    TITLE "19:cjc123_2879"
    INDEX 01 00:49:67
  TRACK 28 AUDIO
    TITLE "0:"
    INDEX 01 00:52:26
  TRACK 29 AUDIO
    TITLE "20:cjc123_2880"
    INDEX 01 00:52:63
  TRACK 30 AUDIO
    TITLE "0:"
    INDEX 01 00:55:28
  TRACK 31 AUDIO
    TITLE "21:cjc123_2881"
    INDEX 01 00:55:57
  TRACK 32 AUDIO
    TITLE "0:"
    INDEX 01 00:58:20
  TRACK 33 AUDIO
    TITLE "19:cjc123_2882"
    INDEX 01 00:58:71
  TRACK 34 AUDIO
    TITLE "0:"
    INDEX 01 01:01:25
  TRACK 35 AUDIO
    TITLE "20:cjc123_2883"
    INDEX 01 01:01:56
  TRACK 36 AUDIO
    TITLE "0:"
    INDEX 01 01:04:21
  TRACK 37 AUDIO
    TITLE "21:cjc123_2884"
    INDEX 01 01:04:50
  TRACK 38 AUDIO
    TITLE "0:"
    INDEX 01 01:07:02
  TRACK 39 AUDIO
    TITLE "19:cjc123_2885"
    INDEX 01 01:07:51
  TRACK 40 AUDIO
    TITLE "0:"
    INDEX 01 01:10:14
  TRACK 41 AUDIO
    TITLE "20:cjc123_2886"
    INDEX 01 01:10:53
  TRACK 42 AUDIO
    TITLE "0:"
    INDEX 01 01:13:16
  TRACK 43 AUDIO
    TITLE "21:cjc123_2887"
    INDEX 01 01:13:42
  TRACK 44 AUDIO
    TITLE "0:"
    INDEX 01 01:16:03
  TRACK 45 AUDIO
    TITLE "19:cjc123_2888"
    INDEX 01 01:16:56
  TRACK 46 AUDIO
    TITLE "0:"
    INDEX 01 01:20:38
  TRACK 47 AUDIO
    TITLE "20:cjc123_2889"
    INDEX 01 01:20:73
  TRACK 48 AUDIO
    TITLE "0:"
    INDEX 01 01:24:14
  TRACK 49 AUDIO
    TITLE "21:cjc123_2890"
    INDEX 01 01:24:43
  TRACK 50 AUDIO
    TITLE "0:"
    INDEX 01 01:28:27
  TRACK 51 AUDIO
    TITLE "19:cjc123_2891"
    INDEX 01 01:29:03
  TRACK 52 AUDIO
    TITLE "0:"
    INDEX 01 01:32:27
  TRACK 53 AUDIO
    TITLE "20:cjc123_2892"
    INDEX 01 01:32:59
  TRACK 54 AUDIO
    TITLE "0:"
    INDEX 01 01:35:67
  TRACK 55 AUDIO
    TITLE "21:cjc123_2893"
    INDEX 01 01:36:19
  TRACK 56 AUDIO
    TITLE "0:"
    INDEX 01 01:39:41
  TRACK 57 AUDIO
    TITLE "19:cjc123_2894"
    INDEX 01 01:40:17
  TRACK 58 AUDIO
    TITLE "0:"
    INDEX 01 01:42:55
  TRACK 59 AUDIO
    TITLE "20:cjc123_2895"
    INDEX 01 01:43:21
  TRACK 60 AUDIO
    TITLE "0:"
    INDEX 01 01:46:33
  TRACK 61 AUDIO
    TITLE "21:cjc123_2896"
    INDEX 01 01:46:61
  TRACK 62 AUDIO
    TITLE "0:"
    INDEX 01 01:49:22
  TRACK 63 AUDIO
    TITLE "19:cjc123_2897"
    INDEX 01 01:50:19
  TRACK 64 AUDIO
    TITLE "0:"
    INDEX 01 01:53:31
  TRACK 65 AUDIO
    TITLE "20:cjc123_2898"
    INDEX 01 01:53:65
  TRACK 66 AUDIO
    TITLE "0:"
    INDEX 01 01:56:65
  TRACK 67 AUDIO
    TITLE "21:cjc123_2899"
    INDEX 01 01:57:21
  TRACK 68 AUDIO
    TITLE "0:"
    INDEX 01 02:00:33
  TRACK 69 AUDIO
    TITLE "19:cjc123_2900"
    INDEX 01 02:01:11
  TRACK 70 AUDIO
    TITLE "0:"
    INDEX 01 02:04:12
  TRACK 71 AUDIO
    TITLE "20:cjc123_2901"
    INDEX 01 02:04:51
  TRACK 72 AUDIO
    TITLE "0:"
    INDEX 01 02:07:55
  TRACK 73 AUDIO
    TITLE "21:cjc123_2902"
    INDEX 01 02:08:09
  TRACK 74 AUDIO
    TITLE "0:"
    INDEX 01 02:11:08
  TRACK 75 AUDIO
    TITLE "19:cjc123_2903"
    INDEX 01 02:11:63
  TRACK 76 AUDIO
    TITLE "0:"
    INDEX 01 02:15:05
  TRACK 77 AUDIO
    TITLE "20:cjc123_2904"
    INDEX 01 02:15:41
  TRACK 78 AUDIO
    TITLE "0:"
    INDEX 01 02:18:33
  TRACK 79 AUDIO
    TITLE "21:cjc123_2905"
    INDEX 01 02:18:63
  TRACK 80 AUDIO
    TITLE "0:"
    INDEX 01 02:22:06
  TRACK 81 AUDIO
    TITLE "19:cjc123_2906"
    INDEX 01 02:23:03
  TRACK 82 AUDIO
    TITLE "0:"
    INDEX 01 02:25:49
  TRACK 83 AUDIO
    TITLE "20:cjc123_2907"
    INDEX 01 02:26:07
  TRACK 84 AUDIO
    TITLE "0:"
    INDEX 01 02:28:55
  TRACK 85 AUDIO
    TITLE "21:cjc123_2908"
    INDEX 01 02:29:11
  TRACK 86 AUDIO
    TITLE "0:"
    INDEX 01 02:31:61
  TRACK 87 AUDIO
    TITLE "19:cjc123_2909"
    INDEX 01 02:32:65
  TRACK 88 AUDIO
    TITLE "0:"
    INDEX 01 02:35:26
  TRACK 89 AUDIO
    TITLE "20:cjc123_2910"
    INDEX 01 02:35:71
  TRACK 90 AUDIO
    TITLE "0:"
    INDEX 01 02:38:67
  TRACK 91 AUDIO
    TITLE "21:cjc123_2911"
    INDEX 01 02:39:20
  TRACK 92 AUDIO
    TITLE "0:"
    INDEX 01 02:41:58
